<?xml version='1.0' encoding='UTF-8' standalone='no'?>
<svg
  xmlns="http://www.w3.org/2000/svg"
  xmlns:svg="http://www.w3.org/2000/svg"
  xmlns:rdf="http://www.w3.org/1999/02/22-rdf-syntax-ns#"
  xmlns:cc="http://creativecommons.org/ns#"
  xmlns:dc="http://purl.org/dc/elements/1.1/"
  viewBox="0 0 1438.5422 700.00029"
  id="svg854"
  gorn="0"
  version="1.1">
  <g
    id="breadboard">
    <rect
      stroke-width="0"
      stroke="none"
      fill="#123e00"
      id="rect7119"
      width="1400.0005"
      height="700.00024"
      x="38.541679"
      y="0"
    />
    <rect
      stroke-width="0.99999547"
      fill="#cccccc"
      x="200.87473"
      height="284.95844"
      y="215.62392"
      width="1.5277624"
      id="_x30_.3.3"
      gorn="0.8.0.0.0"
    />
    <rect
      stroke-width="0.99999994"
      fill="#333333"
      gorn="0.9"
      id="_x30_.3.4"
      width="198.77757"
      y="280.04483"
      height="155.62505"
      x="3.6249962"
    />
    <path
      stroke-width="0.99999994"
      fill="#cccccc"
      gorn="0.10"
      d="m 195.72201,212.1284 6.68055,3.47222 v 38.31946 c 0,0 -1.33333,-34.81946 -3.33333,-36.05557 -2.01389,-1.23611 -3.34722,1.59723 -3.34722,1.59723 z"
      id="_x30_.3.9"
    />
    <path
      stroke-width="0.99999994"
      fill="#cccccc"
      gorn="0.11"
      d="m 195.72201,503.60071 6.66666,-3.47222 v -38.29168 c 0,0 -1.33333,34.79167 -3.33333,36.02779 -2,1.23611 -3.33333,-1.58334 -3.33333,-1.58334 z"
      id="_x30_.3.10"
    />
    <polygon
      stroke-width="0.07200003"
      fill="#999999"
      gorn="0.12"
      id="_x30_.3.13"
      points="14.092,36.395 0.128,36.395 9.451,35.776 14.092,35.157 "
      transform="matrix(13.888874,0,0,13.888893,0,-1.8852405)"
    />
    <rect
      stroke-width="0.99999547"
      fill="#cccccc"
      x="122.61093"
      height="24.069452"
      y="262.60995"
      width="1.5416511"
      id="_x30_.3.14"
      gorn="0.13.0.0.0"
    />
    <rect
      stroke-width="0.99999547"
      fill="#cccccc"
      x="122.61093"
      height="24.069452"
      y="427.27609"
      width="1.5416511"
      id="_x30_.3.15"
      gorn="0.14.0.0.0"
    />
    <rect
      stroke-width="0.99999994"
      fill="#b3b3b3"
      gorn="0.15.0.0"
      id="_x30_.3.7"
      width="6.7916594"
      y="503.5726"
      height="15.152781"
      x="0"
    />
    <rect
      stroke-width="0.99999994"
      fill="#cccccc"
      gorn="0.15.0.1"
      id="_x30_.3.8"
      width="6.7916594"
      y="503.5726"
      height="9.7638922"
      x="0"
    />
    <rect
      stroke-width="0.99999994"
      fill="#d6d8c4"
      x="66.472145"
      height="31.972233"
      y="503.60056"
      width="57.916607"
      id="_x30_.3.1"
      gorn="0.15.0.2.0.0.0"
    />
    <polygon
      stroke-width="0.07200003"
      fill="#b3b3b3"
      gorn="0.15.0.2.0.0.1.0"
      id="_x30_.3.0"
      points="0.03,15.661 14.573,15.661 14.573,36.178 0.03,36.176 "
      transform="matrix(13.888874,0,0,13.888893,0,-1.8852405)"
    />
    <rect
      stroke-width="0.99999994"
      fill="#d6d8c4"
      gorn="0.15.0.2.0.0.1.1"
      id="_x30_.3.2"
      width="62.222157"
      y="166.75339"
      height="45.375011"
      x="63.597153"
    />
    <rect
      stroke-width="0.99999994"
      fill="#b3b3b3"
      gorn="0.15.0.2.0.0.1.2"
      id="_x30_.3.5"
      width="6.7916594"
      y="196.96156"
      height="15.166671"
      x="0"
    />
    <rect
      stroke-width="0.99999994"
      fill="#cccccc"
      x="0"
      height="9.7638817"
      y="202.45728"
      width="6.7916594"
      id="_x30_.3.6"
      gorn="0.15.0.2.0.0.1.3.0.0.0"
    />
    <path
      stroke-width="0.99999994"
      fill="#e6e6e6"
      gorn="0.15.0.2.0.0.1.4"
      d="M 195.72201,452.35069 H 183.13869 V 428.0868 h 19.27776 v -6.97223 h -6.68055 v -126.4167 h 6.68055 v -7.94445 H 183.1248 v -24.27778 h 12.59721 V 212.2534 H 1.8055536 V 503.65626 H 195.72201 Z M 38.958292,286.69787 H 29.36108 v -24.08334 h 10.388877 c 3.263886,-6.44445 8.958324,-10.70834 15.416651,-10.70834 7.055548,0 13.027763,3.30556 16.15276,10.70834 v 0 h 52.833272 v 24.06945 H 71.277701 c -3.111107,7.375 -9.111101,12.47222 -16.166649,12.47222 -7.02777,0 -13.041653,-5.08333 -16.15276,-12.45833 z m 0,164.62505 H 29.36108 v -24.06946 h 10.388877 c 3.263886,-6.44444 8.958324,-10.69444 15.416651,-10.69444 7.055548,0 13.027763,3.27778 16.15276,10.69444 v 0 h 52.833272 v 24.06946 H 71.277701 c -3.111107,7.40278 -9.111101,12.48611 -16.166649,12.48611 -7.02777,0 -13.041653,-5.04167 -16.15276,-12.48611 z"
      id="_x30_.3.11"
    />
    <rect
      stroke-width="1.00000155"
      fill="#d8d8d8"
      gorn="0.15.0.2.0.0.2.0.0.0"
      id="rect36"
      width="28.749968"
      y="346.26462"
      height="8.138916"
      x="204.7359"
    />
    <rect
      stroke-width="1.00000155"
      fill="#d8d8d8"
      gorn="0.15.0.2.0.0.3.0.0.0"
      id="rect38"
      width="28.749968"
      y="373.57108"
      height="8.138916"
      x="204.7359"
    />
    <rect
      stroke-width="0.99999994"
      fill="#d8d8d8"
      x="204.7359"
      height="8.1388912"
      y="396.57285"
      width="28.749968"
      id="rect40"
      gorn="0.15.0.2.0.0.4"
    />
    <rect
      stroke-width="0.99999994"
      fill="#d8d8d8"
      gorn="0.15.0.2.0.0.5.0.0.0"
      id="rect42"
      width="25.402725"
      y="428.65784"
      height="44.069504"
      x="203.29585"
    />
    <polygon
      stroke-width="0.07200003"
      fill="#f2f2f2"
      gorn="0.15.0.2.0.1"
      id="_x30_.3.12"
      points="0.128,15.409 14.092,15.409 14.092,17.075 0.128,15.85 "
      transform="matrix(13.888874,0,0,13.888893,0,-1.8852405)"
    />
    <rect
      stroke-width="0.99999994"
      fill="#d8d8d8"
      gorn="0.15.0.2.1.0.0.0"
      id="rect49"
      width="25.40275"
      y="233.66405"
      height="44.069458"
      x="203.29593"
    />
    <rect
      stroke-width="0.99999994"
      fill="#b3b3b3"
      x="4.1805511"
      height="262.97229"
      y="226.40594"
      width="7.7916584"
      id="_x30_.3.16"
      gorn="0.15.1"
    />
    <rect
      stroke-width="0.99999994"
      fill="#cccccc"
      x="1.777776"
      height="262.97229"
      y="226.40594"
      width="3.6944406"
      id="_x30_.3.17"
      gorn="0.15.2"
    />
    <rect
      stroke-width="0.5"
      stroke="#a3946a"
      fill="#9c9e98"
      gorn="0.35"
      id="rect311"
      width="61.659428"
      y="415.73883"
      height="105.90109"
      x="1063.5629"
    />
    <rect
      stroke-width="0.49999994"
      stroke="#f6db50"
      fill="#c9c9c9"
      x="157.9315"
      height="67.989738"
      y="-1093.6149"
      width="114.30627"
      id="rect315"
      gorn="0.36.0.0.0"
      transform="rotate(90)"
    />
    <path
      stroke-width="0.99999994"
      stroke="#000000"
      fill="none"
      gorn="0.73"
      id="path370"
      d=""
    />
    <path
      stroke-width="0.99999994"
      fill="#333333"
      gorn="0.74"
      id="path372"
      d=""
    />
    <ellipse
      stroke-width="1"
      fill-opacity="1"
      fill="#9a916c"
      cx="-66.989349"
      rx="12.124996"
      cy="-157.90662"
      ry="12.124993"
      id="ellipse402"
      gorn="0.77.0.0.0"
      transform="matrix(-0.85419837,0.51994726,-0.51994623,-0.85419899,0,0)"
    />
    <ellipse
      stroke-width="0.99999726"
      fill-opacity="1"
      fill="#9a916c"
      cx="187.45653"
      rx="12.124961"
      cy="-584.21582"
      ry="12.124963"
      id="ellipse404"
      gorn="0.78.0.0.0"
      transform="matrix(-0.85419985,0.51994482,-0.51994804,-0.85419789,0,0)"
    />
    <rect
      stroke-width="0.99999994"
      fill="#d8d8d8"
      gorn="0.79"
      id="rect406"
      width="28.749968"
      y="295.96146"
      height="8.1388912"
      x="204.7359"
    />
    <rect
      stroke-width="1.00000155"
      fill="#d8d8d8"
      x="204.7359"
      height="8.138916"
      y="320.87482"
      width="28.749968"
      id="rect408"
      gorn="0.80.0.0.0"
    />
    <rect
      stroke-width="1.00000155"
      fill="#d8d8d8"
      x="204.7359"
      height="8.138916"
      y="373.5719"
      width="28.749968"
      id="rect410"
      gorn="0.81.0.0.0"
    />
    <polygon
      stroke-width="0.10013879"
      fill="#cccccc"
      gorn="0.82.0.0.0.0.0.0.0.0"
      id="_x30_.24.0"
      points="130.826,31.6 130.826,18.695 122.597,18.695 122.597,22.578 122.789,22.578 122.789,27.717 122.597,27.717 122.597,31.6 "
      transform="matrix(0,-12.093626,8.5385649,0,1040.0692,1893.4976)"
    />
    <polygon
      stroke-width="0.10013879"
      fill="#cccccc"
      gorn="0.82.0.0.0.0.0.0.0.1"
      id="_x30_.24.1"
      points="123.977,18.695 123.977,31.6 132.145,31.6 132.145,27.717 131.956,27.717 131.956,22.578 132.145,22.578 132.145,18.695 "
      transform="matrix(0,-12.093626,8.5385649,0,1040.0692,1893.4976)"
    />
    <ellipse
      stroke-width="1.69493556"
      fill-opacity="1"
      fill="#ffedaa"
      gorn="0.82.0.0.0.0.0.0.0.2"
      id="_x30_.24.5"
      ry="40.498795"
      cy="1255.4346"
      rx="35.240971"
      cx="-353.9469"
      transform="rotate(-90)"
    />
    <rect
      stroke-width="1.01759064"
      opacity="0.2"
      enable-background="new    "
      gorn="0.82.0.0.0.0.0.0.0.3"
      id="_x30_.24.11"
      width="2.3098824"
      height="33.163788"
      y="1199.6892"
      x="-297.80386"
      transform="rotate(-90)"
    />
    <rect
      stroke-width="1.01759064"
      opacity="0.2"
      enable-background="new    "
      gorn="0.82.0.0.0.0.0.0.0.4"
      id="_x30_.24.12"
      width="2.3098824"
      height="33.155247"
      y="1276.7324"
      x="-297.80386"
      transform="rotate(-90)"
    />
    <rect
      stroke-width="1.01757026"
      opacity="0.2"
      x="-300.11218"
      y="1232.8538"
      height="43.879681"
      width="2.3097901"
      id="_x30_.24.13"
      gorn="0.82.0.0.0.0.0.0.0.5.0.0.0"
      enable-background="new    "
      transform="rotate(-90)"
    />
    <rect
      stroke-width="0.99999994"
      fill="#d8d8d8"
      x="-331.87506"
      y="1188.6046"
      height="5.0418444"
      width="17.332691"
      id="rect454"
      gorn="0.82.0.0.0.1.0"
      transform="rotate(-90)"
    />
    <rect
      stroke-width="0.99999994"
      fill="#d8d8d8"
      x="-401.26102"
      y="1188.6046"
      height="5.0418444"
      width="17.332691"
      id="rect456"
      gorn="0.82.0.0.0.1.1"
      transform="rotate(-90)"
    />
    <rect
      stroke-width="0.99999994"
      fill="#d4975a"
      x="-401.26102"
      y="1193.4323"
      height="6.3268456"
      width="17.332691"
      id="rect458"
      gorn="0.82.0.0.0.1.2"
      transform="rotate(-90)"
    />
    <rect
      stroke-width="0.99999994"
      fill="#d4975a"
      x="-331.87506"
      y="1193.4323"
      height="6.3268456"
      width="17.332691"
      id="rect460"
      gorn="0.82.0.0.0.1.3"
      transform="rotate(-90)"
    />
    <rect
      stroke-width="0.99999994"
      fill="#d8d8d8"
      gorn="0.82.0.0.0.2.0.0.0.0"
      id="rect464"
      width="17.332691"
      height="5.0418444"
      y="-1321.0435"
      x="383.92874"
      transform="rotate(90)"
    />
    <rect
      stroke-width="0.99999994"
      fill="#d8d8d8"
      gorn="0.82.0.0.0.2.0.0.0.1"
      id="rect466"
      width="17.332691"
      height="5.0418444"
      y="-1321.0435"
      x="314.54276"
      transform="rotate(90)"
    />
    <rect
      stroke-width="0.99999994"
      fill="#d4975a"
      gorn="0.82.0.0.0.2.0.0.0.2"
      id="rect468"
      width="17.332691"
      height="6.3268456"
      y="-1316.2158"
      x="314.54276"
      transform="rotate(90)"
    />
    <rect
      stroke-width="0.99999994"
      fill="#d4975a"
      gorn="0.82.0.0.0.2.0.0.0.3"
      id="rect470"
      width="17.332691"
      height="6.3268456"
      y="-1316.2158"
      x="383.92874"
      transform="rotate(90)"
    />
    <rect
      stroke-width="0.99999994"
      fill="#d8d8d8"
      gorn="0.83.0.0.0.0"
      id="rect508"
      width="15.803138"
      height="15.706577"
      y="441.75836"
      x="340.33948"
    />
    <rect
      stroke-width="0.99999994"
      fill="#d8d8d8"
      gorn="0.83.0.0.0.1"
      id="rect510"
      width="15.803138"
      height="19.110476"
      y="377.30185"
      x="374.24661"
    />
    <rect
      stroke-width="0.99999994"
      fill="#d8d8d8"
      gorn="0.83.0.0.0.2"
      id="rect512"
      width="15.803138"
      height="16.745434"
      y="441.91351"
      x="403.75479"
    />
    <rect
      stroke-width="0.25"
      stroke="#ffffff"
      fill-opacity="1"
      fill="#1d1d1d"
      gorn="0.83.0.0.0.3"
      id="_x30_.21"
      width="104.70943"
      height="45.789536"
      y="396.64999"
      x="328.68491"
    />
    <rect
      stroke-width="0.99999994"
      fill="#d8d8d8"
      gorn="0.84.0.0.0.0.0.0.0.0"
      id="rect518"
      width="15.705746"
      height="27.788155"
      y="505.97043"
      x="400.4873"
    />
    <rect
      stroke-width="0.99999994"
      fill="#d8d8d8"
      gorn="0.84.0.0.0.0.0.0.0.1"
      id="rect520"
      width="15.016665"
      height="27.881882"
      y="505.94836"
      x="357.1124"
    />
    <rect
      stroke-dasharray="none"
      stroke-width="0.37500125"
      stroke="#ffffff"
      fill="none"
      gorn="0.84.0.0.0.0.0.0.0.2.0.0.0.0"
      id="rect243"
      width="36.417404"
      y="353.42133"
      height="66.212166"
      x="-537.80774"
      stroke-miterlimit="4"
      transform="rotate(-90)"
    />
    <rect
      stroke-width="0.99999994"
      fill="#bfad8c"
      x="366.85535"
      height="27.859829"
      y="505.94836"
      width="37.741653"
      id="rect522"
      gorn="0.84.0.0.0.0.0.0.0.2.1"
    />
    <rect
      stroke-width="1.14443588"
      fill="#d8d8d8"
      x="210.686"
      height="24.567701"
      y="-269.86533"
      width="20.261766"
      id="rect562"
      gorn="0.85.0.0.0.0.0.0.0"
      transform="rotate(90)"
    />
    <rect
      stroke-width="1.14443696"
      fill="#d8d8d8"
      x="154.72522"
      height="24.655939"
      y="-269.88348"
      width="19.377119"
      id="rect564"
      gorn="0.85.0.0.0.1.0.0.0"
      transform="rotate(90)"
    />
    <rect
      stroke-width="1.14443696"
      fill="#e6e6e6"
      x="173.64952"
      height="24.63073"
      y="-269.89084"
      width="37.439491"
      id="rect566"
      gorn="0.85.0.0.0.2.0.0.0"
      transform="rotate(90)"
    />
    <rect
      stroke-width="0.74524635"
      fill="#d8d8d8"
      gorn="0.86.0.0.0.0"
      id="rect652"
      width="15.801845"
      y="-304.49081"
      height="21.790094"
      x="348.47034"
      transform="rotate(90)"
    />
    <rect
      stroke-width="0.74524599"
      fill="#d8d8d8"
      x="304.8302"
      height="21.868355"
      y="-304.50656"
      width="15.111876"
      id="rect654"
      gorn="0.86.0.0.0.1.0.0.0"
      transform="rotate(90)"
    />
    <rect
      stroke-width="0.74524635"
      fill="#fff6d5"
      gorn="0.86.0.0.0.2"
      id="rect656"
      width="29.198437"
      y="-304.51318"
      height="21.845995"
      x="319.58798"
      transform="rotate(90)"
    />
    <rect
      stroke-width="0.69861233"
      fill="#d8d8d8"
      x="-229.60339"
      height="22.817413"
      y="1298.5143"
      width="15.464921"
      id="rect728"
      gorn="0.89.0.0.0.0.0.0.0"
      transform="rotate(-90)"
    />
    <rect
      stroke-width="0.69861591"
      fill="#d8d8d8"
      x="-272.31201"
      height="22.901018"
      y="1298.4945"
      width="14.788365"
      id="rect730"
      gorn="0.89.0.0.0.1.0.0.0"
      transform="rotate(-90)"
    />
    <rect
      stroke-width="0.69861382"
      fill="#fbe67f"
      x="-257.87448"
      height="22.873152"
      y="1298.4851"
      width="28.566004"
      id="rect732"
      gorn="0.89.0.0.0.2.0.0.0"
      transform="rotate(-90)"
    />
    <rect
      stroke-width="0.25"
      stroke="#ffffff"
      fill="#3c3c3c"
      x="-562.6311"
      y="483.31415"
      height="435.10132"
      width="425.92371"
      id="rect9"
      gorn="0.90.0.0.0.0.0.0.0"
      transform="rotate(-90)"
    />
    <text
      stroke-width="0.99999994"
      fill="#c8c8c8"
      white-space="pre"
      font-family="OCRA"
      id="_x30_.25.0.0"
      gorn="0.90.0.0.0.1.0.0.0.0.0.0.0.0.0.0.0.0.0.0.0.0.0"
      font-size="38.74565887"
      transform="scale(1.0083553,0.99171394)"
      x="503.85953"
      y="200.37453">teensy4.0</text>
    <text
      stroke-width="0.99999994"
      fill="#ffffff"
      white-space="pre"
      text-anchor="start"
      writing-mode="lr-tb"
      letter-spacing="2.50721741px"
      font-family="OCRA"
      gorn="0.90.0.0.0.2.0.0.0.0"
      id="tspan4937"
      y="683.1701"
      x="-521.10004"
      font-style="normal"
      font-variant="normal"
      font-weight="500"
      font-stretch="normal"
      font-size="37.60828018"
      font-variant-ligatures="normal"
      font-variant-caps="normal"
      font-variant-numeric="normal"
      font-feature-settings="normal"
      text-align="start"
      transform="matrix(0,-0.99171394,1.0083553,0,0,0)">MIMXRT1062</text>
    <text
      stroke-width="0.99999994"
      fill="#ffffff"
      white-space="pre"
      text-anchor="start"
      writing-mode="lr-tb"
      letter-spacing="4.38763046px"
      font-family="OCRA"
      gorn="0.90.0.0.0.3.0.0.0.0"
      id="tspan4939"
      y="730.99402"
      x="-523.19635"
      font-style="normal"
      font-variant="normal"
      font-weight="500"
      font-stretch="normal"
      font-size="37.60828018"
      font-variant-ligatures="normal"
      font-variant-caps="normal"
      font-variant-numeric="normal"
      font-feature-settings="normal"
      text-align="start"
      transform="matrix(0,-0.99171394,1.0083553,0,0,0)">DVL6A</text>
    <text
      stroke-width="0.99999994"
      fill="#ffffff"
      white-space="pre"
      text-anchor="start"
      writing-mode="lr-tb"
      letter-spacing="4.38763046px"
      font-family="OCRA"
      gorn="0.90.0.0.0.4.0.0.0.0"
      id="tspan4941"
      y="785.81439"
      x="-462.09958"
      font-style="normal"
      font-variant="normal"
      font-weight="500"
      font-stretch="normal"
      font-size="37.60828018"
      font-variant-ligatures="normal"
      font-variant-caps="normal"
      font-variant-numeric="normal"
      font-feature-settings="normal"
      text-align="start"
      transform="matrix(0,-0.99171394,1.0083553,0,0,0)">0N00X</text>
    <path
      stroke-width="1"
      fill="#ffffff"
      gorn="0.90.0.0.0.5.0.0.0.0"
      d="m 600.06918,365.39289 c -2.42708,4.5626 -2.5788,4.77393 -3.22345,4.07768 -0.22753,-0.28541 -2.16158,-3.33173 -4.25991,-6.81277 l -3.83024,-6.2535 1.84559,-3.655 c 1.0239,-1.9767 2.13628,-3.92862 2.42707,-4.31405 l 0.58149,-0.70832 0.46763,0.70832 c 0.22753,0.3853 2.16158,3.48105 4.2347,6.89995 l 3.79228,6.24091 z"
      id="path380"
    />
    <path
      stroke-width="1"
      fill="#ffffff"
      gorn="0.90.0.0.0.5.0.0.0.1"
      d="m 583.44646,356.88923 c -3.16019,5.9799 -3.83015,7.06146 -4.2347,6.72585 -0.37917,-0.32303 -7.86253,-12.44473 -8.15332,-13.21546 -0.20223,-0.58378 4.00717,-8.45398 4.5001,-8.45398 0.40456,0 8.49471,12.90462 8.49471,13.50138 -0.0255,0.14919 -0.29079,0.80822 -0.60679,1.44221 z"
      id="path382"
    />
    <path
      stroke-width="1"
      fill="#ffffff"
      gorn="0.90.0.0.0.5.0.0.0.2"
      d="m 564.08076,353.44555 c -1.17563,2.21293 -2.31331,4.01553 -2.54084,4.01553 -0.37926,0 -8.3935,-12.60624 -8.4188,-13.3025 -0.0255,-0.37232 3.47619,-7.34738 4.12093,-8.18038 0.37917,-0.52281 0.40447,-0.52281 0.84689,0 0.51832,0.57211 7.77415,12.40737 8.00168,13.04136 0.0883,0.22314 -0.82167,2.21306 -2.00986,4.42599 z"
      id="path384"
    />
    <path
      stroke-width="1"
      fill="#ffffff"
      gorn="0.90.0.0.0.5.0.0.0.3"
      d="m 612.65942,381.30608 c -0.35395,0.63438 -1.35256,2.49885 -2.22474,4.13994 -1.54224,2.84692 -1.6307,2.95887 -2.13638,2.43672 -0.69525,-0.74595 -7.88782,-12.60625 -7.88782,-13.04136 0,-0.68368 4.1588,-8.06855 4.5001,-7.95673 0.26549,0.0908 8.30503,12.73066 8.33033,13.12854 0,0.0908 -0.26548,0.65903 -0.58149,1.29341 z"
      id="path386"
    />
    <path
      stroke-width="1"
      fill="#ffffff"
      gorn="0.90.0.0.0.5.0.0.0.4"
      d="m 593.25577,377.88717 c -1.16298,2.21294 -2.27535,3.99075 -2.51554,3.99075 -0.20223,0 -2.18688,-2.95887 -4.37377,-6.57665 l -4.03238,-6.57665 2.07312,-3.9037 c 1.13768,-2.16312 2.16159,-4.00308 2.27535,-4.13994 0.2907,-0.34768 0.82159,0.39826 4.87936,7.01176 l 3.83014,6.2286 z"
      id="path388"
    />
    <path
      stroke-width="1"
      fill="#ffffff"
      gorn="0.90.0.0.0.5.0.0.0.5"
      d="m 588.35112,347.26665 c -1.16298,2.12589 -2.22484,3.87892 -2.40177,3.84156 -0.13907,-0.026 -2.09842,-3.00856 -4.32317,-6.66371 l -4.05768,-6.60143 2.16158,-4.13993 c 1.17554,-2.23785 2.25005,-4.10259 2.42698,-4.07781 0.31609,0.026 8.33034,13.04149 8.29238,13.4766 0,0.13621 -0.96065,2.03884 -2.09832,4.16472 z"
      id="path390"
    />
    <path
      stroke-width="1"
      fill="#ffffff"
      gorn="0.90.0.0.0.5.0.0.0.6"
      d="m 570.41379,341.17492 c -1.20093,2.23771 -2.27535,4.01553 -2.38912,3.92861 -0.15172,-0.0519 -2.04781,-3.09561 -4.27265,-6.75075 l -4.05768,-6.6637 1.89609,-3.72961 c 1.02391,-2.03896 2.07312,-3.9037 2.33861,-4.13994 0.44242,-0.39826 0.69526,-0.0908 2.9453,3.53073 4.09564,6.58911 5.4735,8.87663 5.61257,9.31175 0.0628,0.23611 -0.84698,2.23784 -2.07312,4.51291 z"
      id="path392"
    />
    <path
      stroke-width="1"
      fill="#ffffff"
      gorn="0.90.0.0.0.5.0.0.0.7"
      d="m 557.38103,365.76587 c -1.16288,2.18802 -2.25005,3.96584 -2.41433,3.99075 -0.15172,0 -2.11107,-3.00869 -4.36112,-6.68862 l -4.05768,-6.70093 1.98456,-3.75451 c 1.11247,-2.0762 2.16159,-3.94107 2.36391,-4.13995 0.2907,-0.34767 1.11237,0.83287 4.5001,6.35287 2.25005,3.70483 4.12094,6.80045 4.12094,6.86259 0,0.026 -0.96075,1.86487 -2.13638,4.0778 z"
      id="path394"
    />
    <ellipse
      stroke-width="1.00006914"
      fill="#6f6d4a"
      cx="753.95294"
      rx="9.7286396"
      cy="-21.740974"
      ry="9.7287207"
      id="ellipse398"
      gorn="0.90.0.0.0.6.0.0.0"
      transform="matrix(0.71296741,0.70119717,-0.71296348,0.70120117,0,0)"
    />
    <text
      stroke-width="0.99999994"
      fill="#ffffff"
      white-space="pre"
      text-anchor="start"
      writing-mode="lr-tb"
      letter-spacing="4.38763046px"
      font-family="OCRA"
      gorn="0.90.0.0.0.7.0.0.0.0"
      id="tspan4943"
      y="837.13641"
      x="-510.93744"
      font-style="normal"
      font-variant="normal"
      font-weight="500"
      font-stretch="normal"
      font-size="37.60828018"
      font-variant-ligatures="normal"
      font-variant-caps="normal"
      font-variant-numeric="normal"
      font-feature-settings="normal"
      text-align="start"
      transform="matrix(0,-0.99171394,1.0083553,0,0,0)">CTDD2011B</text>
    <rect
      stroke-width="0.47437599"
      fill="#d8d8d8"
      gorn="0.92.0.0.0.0.0.0.0.0"
      id="rect2008"
      width="11.933478"
      height="19.789469"
      y="950.16711"
      x="-165.83215"
      transform="rotate(-90)"
    />
    <rect
      stroke-width="0.47437671"
      fill="#d8d8d8"
      gorn="0.92.0.0.0.0.1.0.0.0"
      id="rect2010"
      width="11.412463"
      height="19.860544"
      y="950.15271"
      x="-198.79201"
      transform="rotate(-90)"
    />
    <rect
      stroke-width="0.47437555"
      fill="#79624b"
      gorn="0.92.0.0.0.0.2.0.0.0"
      id="rect2012"
      width="22.050564"
      height="19.840158"
      y="950.14661"
      x="-187.6463"
      transform="rotate(-90)"
    />
    <rect
      stroke-width="0.47437599"
      fill="#d8d8d8"
      gorn="0.93.0.0.0.0.0.0.0.0"
      id="rect2018"
      width="11.933478"
      y="950.16711"
      height="19.789469"
      x="-234.65356"
      transform="rotate(-90)"
    />
    <rect
      stroke-width="0.47437671"
      fill="#d8d8d8"
      gorn="0.93.0.0.0.0.1.0.0.0"
      id="rect2020"
      width="11.412463"
      y="950.15271"
      height="19.860544"
      x="-267.61325"
      transform="rotate(-90)"
    />
    <rect
      stroke-width="0.47437555"
      fill="#79624b"
      gorn="0.93.0.0.0.0.2.0.0.0"
      id="rect2022"
      width="22.050564"
      y="950.14661"
      height="19.840158"
      x="-256.46762"
      transform="rotate(-90)"
    />
    <rect
      stroke-width="0.47437599"
      fill="#d8d8d8"
      gorn="0.94.0.0.0.0.0.0.0.0"
      id="rect2028"
      width="10.727368"
      height="19.211969"
      y="1179.0205"
      x="-192.50961"
      transform="rotate(-90)"
    />
    <rect
      stroke-width="0.47437671"
      fill="#d8d8d8"
      gorn="0.94.0.0.0.0.1.0.0.0"
      id="rect2030"
      width="10.259012"
      height="19.28097"
      y="1179.0061"
      x="-222.13881"
      transform="rotate(-90)"
    />
    <rect
      stroke-width="0.47437549"
      fill-opacity="1"
      fill="#1b1611"
      gorn="0.94.0.0.0.0.2.0.0.0"
      id="rect2032"
      width="19.821926"
      height="19.261177"
      y="1179.0004"
      x="-212.11971"
      transform="rotate(-90)"
    />
    <rect
      stroke-width="0.47437599"
      fill="#d8d8d8"
      gorn="0.95.0.0.0.0.0.0.0.0"
      id="rect2038"
      width="18.444899"
      height="29.501534"
      y="-368.2627"
      x="-1005.335"
      transform="scale(-1)"
    />
    <rect
      stroke-width="0.47437671"
      fill="#d8d8d8"
      gorn="0.95.0.0.0.0.1.0.0.0"
      id="rect2040"
      width="17.639595"
      height="29.607491"
      y="-368.28473"
      x="-1056.2793"
      transform="scale(-1)"
    />
    <rect
      stroke-width="0.47437555"
      fill="#79624b"
      gorn="0.95.0.0.0.0.2.0.0.0"
      id="rect2042"
      width="34.082302"
      height="29.577095"
      y="-368.29321"
      x="-1039.0525"
      transform="scale(-1)"
    />
    <rect
      stroke-width="0.47437599"
      fill="#d8d8d8"
      gorn="0.96.0.0.0.0.0.0.0.0"
      id="rect2048"
      width="18.444899"
      y="-1205.7325"
      height="29.501534"
      x="489.32849"
      transform="rotate(90)"
    />
    <rect
      stroke-width="0.47437671"
      fill="#d8d8d8"
      gorn="0.96.0.0.0.0.1.0.0.0"
      id="rect2050"
      width="17.639595"
      y="-1205.7537"
      height="29.607491"
      x="438.38403"
      transform="rotate(90)"
    />
    <rect
      stroke-width="0.47437555"
      fill="#79624b"
      gorn="0.96.0.0.0.0.2.0.0.0"
      id="rect2052"
      width="34.082302"
      y="-1205.7631"
      height="29.577095"
      x="455.61121"
      transform="rotate(90)"
    />
    <rect
      stroke-width="0.25"
      stroke="#ffffff"
      fill="#1d1d1d"
      gorn="0.97.0.0.0.0"
      id="rect294"
      width="84.284088"
      height="99.388351"
      y="-518.86554"
      x="-1022.9052"
      transform="scale(-1)"
    />
    <rect
      stroke-width="0.99999994"
      fill="#d8d8d8"
      gorn="0.97.1.0.0.0"
      id="rect452"
      width="6.2294369"
      height="10.531988"
      y="-419.50357"
      x="-955.95276"
      transform="scale(-1)"
    />
    <rect
      stroke-width="0.99999994"
      fill="#d8d8d8"
      gorn="0.97.2.0.0.0"
      id="rect2093"
      width="6.2294369"
      y="-419.50357"
      height="10.531988"
      x="-973.88745"
      transform="scale(-1)"
    />
    <rect
      stroke-width="0.99999994"
      fill="#d8d8d8"
      gorn="0.97.3.0.0.0"
      id="rect2095"
      width="6.2294369"
      height="10.531988"
      y="-419.50357"
      x="-991.82263"
      transform="scale(-1)"
    />
    <rect
      stroke-width="0.99999994"
      fill="#d8d8d8"
      gorn="0.97.4.0.0.0"
      id="rect2097"
      width="6.2294369"
      y="-419.50357"
      height="10.531988"
      x="-1009.7578"
      transform="scale(-1)"
    />
    <rect
      stroke-width="0.99999994"
      fill="#d8d8d8"
      gorn="0.97.5.0.0.0"
      id="rect2099"
      width="6.2294369"
      y="-529.8277"
      height="10.531988"
      x="-955.95276"
      transform="scale(-1)"
    />
    <rect
      stroke-width="0.99999994"
      fill="#d8d8d8"
      gorn="0.97.6.0.0.0"
      id="rect2101"
      width="6.2294369"
      height="10.531988"
      y="-529.8277"
      x="-973.88745"
      transform="scale(-1)"
    />
    <rect
      stroke-width="0.99999994"
      fill="#d8d8d8"
      gorn="0.97.7.0.0.0"
      id="rect2103"
      width="6.2294369"
      y="-529.8277"
      height="10.531988"
      x="-991.82263"
      transform="scale(-1)"
    />
    <rect
      stroke-width="0.99999994"
      fill="#d8d8d8"
      gorn="0.97.8.0.0.0"
      id="rect2105"
      width="6.2294369"
      height="10.531988"
      y="-529.8277"
      x="-1009.7578"
      transform="scale(-1)"
    />
    <rect
      stroke-width="0.25"
      stroke="#ffffff"
      fill="#1d1d1d"
      x="172.73399"
      height="110.30553"
      y="-433.09766"
      width="118.60078"
      id="rect5075"
      gorn="0.111.0.0.0"
      transform="rotate(90)"
    />
    <rect
      stroke-width="0.99999994"
      fill="#d8d8d8"
      x="266.94684"
      y="-322.82144"
      height="11.688861"
      width="8.7657833"
      id="rect5077"
      gorn="0.112.0.0.0.0.0.0.0"
      transform="rotate(90)"
    />
    <rect
      stroke-width="0.99999994"
      fill="#d8d8d8"
      x="248.01834"
      height="11.688861"
      y="-322.82144"
      width="8.7657833"
      id="rect5079"
      gorn="0.112.0.0.0.1.0.0.0"
      transform="rotate(90)"
    />
    <rect
      stroke-width="0.99999994"
      fill="#d8d8d8"
      x="210.16296"
      y="-322.82144"
      height="11.688861"
      width="8.7657833"
      id="rect5081"
      gorn="0.112.0.0.0.2.0.0.0"
      transform="rotate(90)"
    />
    <rect
      stroke-width="0.99999994"
      fill="#d8d8d8"
      x="191.23444"
      height="11.688861"
      y="-322.82144"
      width="8.7657833"
      id="rect5083"
      gorn="0.112.0.0.0.3.0.0.0"
      transform="rotate(90)"
    />
    <rect
      stroke-width="0.99999994"
      fill="#d8d8d8"
      x="229.09065"
      height="11.688861"
      y="-322.82144"
      width="8.7657833"
      id="rect5085"
      gorn="0.112.0.0.0.4.0.0.0"
      transform="rotate(90)"
    />
    <rect
      stroke-width="0.99999994"
      fill="#d8d8d8"
      x="266.94684"
      height="11.688861"
      y="-445.26392"
      width="8.7657833"
      id="rect5089"
      gorn="0.113.0.0.0.0.0.0.0"
      transform="rotate(90)"
    />
    <rect
      stroke-width="0.99999994"
      fill="#d8d8d8"
      x="248.01834"
      y="-445.26392"
      height="11.688861"
      width="8.7657833"
      id="rect5091"
      gorn="0.113.0.0.0.1.0.0.0"
      transform="rotate(90)"
    />
    <rect
      stroke-width="0.99999994"
      fill="#d8d8d8"
      x="210.16296"
      height="11.688861"
      y="-445.26392"
      width="8.7657833"
      id="rect5093"
      gorn="0.113.0.0.0.2.0.0.0"
      transform="rotate(90)"
    />
    <rect
      stroke-width="0.99999994"
      fill="#d8d8d8"
      x="191.23444"
      y="-445.26392"
      height="11.688861"
      width="8.7657833"
      id="rect5095"
      gorn="0.113.0.0.0.3.0.0.0"
      transform="rotate(90)"
    />
    <rect
      stroke-width="0.99999994"
      fill="#d8d8d8"
      x="229.09065"
      y="-445.26392"
      height="11.688861"
      width="8.7657833"
      id="rect5097"
      gorn="0.113.0.0.0.4.0.0.0"
      transform="rotate(90)"
    />
    <rect
      stroke-width="0.99999994"
      fill="#d8d8d8"
      x="-344.1257"
      y="-171.17505"
      height="11.688877"
      width="8.7657709"
      id="rect5101"
      gorn="0.114.0.0.0.0.0.0.0"
      transform="scale(-1)"
    />
    <rect
      stroke-width="0.99999994"
      fill="#d8d8d8"
      x="-363.05371"
      height="11.688877"
      y="-171.17505"
      width="8.7657709"
      id="rect5103"
      gorn="0.114.0.0.0.1.0.0.0"
      transform="scale(-1)"
    />
    <rect
      stroke-width="0.99999994"
      fill="#d8d8d8"
      x="-400.90967"
      y="-171.17505"
      height="11.688877"
      width="8.7657709"
      id="rect5105"
      gorn="0.114.0.0.0.2.0.0.0"
      transform="scale(-1)"
    />
    <rect
      stroke-width="0.99999994"
      fill="#d8d8d8"
      x="-419.83768"
      height="11.688877"
      y="-171.17505"
      width="8.7657709"
      id="rect5107"
      gorn="0.114.0.0.0.3.0.0.0"
      transform="scale(-1)"
    />
    <rect
      stroke-width="0.99999994"
      fill="#d8d8d8"
      x="-381.98169"
      height="11.688877"
      y="-171.17505"
      width="8.7657709"
      id="rect5109"
      gorn="0.114.0.0.0.4.0.0.0"
      transform="scale(-1)"
    />
    <rect
      stroke-width="0.99999994"
      fill="#d8d8d8"
      x="-344.1257"
      height="11.688877"
      y="-303.20004"
      width="8.7657709"
      id="rect5113"
      gorn="0.115.0.0.0.0.0.0.0"
      transform="scale(-1)"
    />
    <rect
      stroke-width="0.99999994"
      fill="#d8d8d8"
      x="-363.05371"
      y="-303.20004"
      height="11.688877"
      width="8.7657709"
      id="rect5115"
      gorn="0.115.0.0.0.1.0.0.0"
      transform="scale(-1)"
    />
    <rect
      stroke-width="0.99999994"
      fill="#d8d8d8"
      x="-400.90967"
      height="11.688877"
      y="-303.20004"
      width="8.7657709"
      id="rect5117"
      gorn="0.115.0.0.0.2.0.0.0"
      transform="scale(-1)"
    />
    <rect
      stroke-width="0.99999994"
      fill="#d8d8d8"
      x="-419.83768"
      y="-303.20004"
      height="11.688877"
      width="8.7657709"
      id="rect5119"
      gorn="0.115.0.0.0.3.0.0.0"
      transform="scale(-1)"
    />
    <rect
      stroke-width="0.99999994"
      fill="#d8d8d8"
      x="-381.98169"
      y="-303.20004"
      height="11.688877"
      width="8.7657709"
      id="rect5121"
      gorn="0.115.0.0.0.4.0.0.0"
      transform="scale(-1)"
    />
    <rect
      stroke-width="0.99999994"
      fill="#d8d8d8"
      x="-287.61938"
      y="-505.44016"
      height="11.688877"
      width="6.3602309"
      id="rect5196"
      gorn="0.117.0.0.0.0.0.0.0"
      transform="scale(-1)"
    />
    <rect
      stroke-width="0.99999994"
      fill="#d8d8d8"
      x="-301.35309"
      height="11.688877"
      y="-505.44016"
      width="6.3602309"
      id="rect5198"
      gorn="0.117.0.0.0.1.0.0.0"
      transform="scale(-1)"
    />
    <rect
      stroke-width="0.99999994"
      fill="#d8d8d8"
      x="-273.88568"
      height="11.688877"
      y="-505.44016"
      width="6.3602309"
      id="rect5200"
      gorn="0.117.0.0.0.2.0.0.0"
      transform="scale(-1)"
    />
    <rect
      stroke-width="0.99999994"
      fill="#d8d8d8"
      x="-287.97058"
      height="11.688877"
      y="-567.94019"
      width="6.3602309"
      id="rect5208"
      gorn="0.118.0.0.0.0.0.0.0"
      transform="scale(-1)"
    />
    <rect
      stroke-width="0.99999994"
      fill="#d8d8d8"
      x="-301.70435"
      y="-567.94019"
      height="11.688877"
      width="6.3602309"
      id="rect5210"
      gorn="0.118.0.0.0.1.0.0.0"
      transform="scale(-1)"
    />
    <rect
      stroke-width="0.99999994"
      fill="#d8d8d8"
      x="-274.23688"
      y="-567.94019"
      height="11.688877"
      width="6.3602309"
      id="rect5212"
      gorn="0.118.0.0.0.2.0.0.0"
      transform="scale(-1)"
    />
    <rect
      stroke-width="0.25"
      stroke="#ffffff"
      fill="#1d1d1d"
      x="502.28583"
      y="-315.34094"
      height="61.873886"
      width="57.764965"
      id="rect5190"
      gorn="0.119.0.0.0"
      transform="rotate(90)"
    />
    <rect
      stroke-width="0.49999994"
      stroke="#f6db50"
      fill="#c9c9c9"
      transform="scale(-1)"
      gorn="0.36.0.0.0"
      id="rect7154"
      width="79.939781"
      y="-274.85422"
      height="37.91906"
      x="-1276.3282"
    />
    <circle
      stroke-width="20"
      stroke="#f7bd13"
      fill="#ffffff"
      cx="88.083237"
      cy="649.80951"
      id="connector0pin"
      gorn="0.21.7"
      r="29"
    />
    <circle
      stroke-width="20"
      stroke="#f7bd13"
      fill="#ffffff"
      cx="188.08313"
      cy="649.80951"
      id="connector1pin"
      gorn="0.21.6"
      r="29"
    />
    <circle
      stroke-width="20"
      stroke="#f7bd13"
      fill="#ffffff"
      cx="288.08304"
      cy="649.80951"
      id="connector2pin"
      gorn="0.21.5"
      r="29"
    />
    <circle
      stroke-width="20"
      stroke="#f7bd13"
      fill="#ffffff"
      cx="388.08292"
      cy="649.80951"
      id="connector3pin"
      gorn="0.21.4"
      r="29"
    />
    <circle
      stroke-width="20"
      stroke="#f7bd13"
      fill="#ffffff"
      cx="488.09671"
      cy="649.80951"
      id="connector4pin"
      gorn="0.21.3"
      r="29"
    />
    <circle
      stroke-width="20"
      stroke="#f7bd13"
      fill="#ffffff"
      cx="588.0827"
      cy="649.80951"
      id="connector5pin"
      gorn="0.21.2"
      r="29"
    />
    <circle
      stroke-width="20"
      stroke="#f7bd13"
      fill="#ffffff"
      cx="688.08258"
      cy="649.80951"
      id="connector6pin"
      gorn="0.21.1"
      r="29"
    />
    <circle
      stroke-width="20"
      stroke="#f7bd13"
      fill="#ffffff"
      cx="788.09637"
      cy="649.80951"
      id="connector7pin"
      gorn="0.21.0"
      r="29"
    />
    <circle
      stroke-width="20"
      stroke="#f7bd13"
      fill="#ffffff"
      cx="888.06854"
      cy="649.80951"
      id="connector8pin"
      gorn="0.20.5"
      r="29"
    />
    <circle
      stroke-width="20"
      stroke="#f7bd13"
      fill="#ffffff"
      cx="988.09613"
      cy="649.80951"
      id="connector9pin"
      gorn="0.20.4"
      r="29"
    />
    <circle
      stroke-width="20"
      stroke="#f7bd13"
      fill="#ffffff"
      cx="1088.0822"
      cy="649.80951"
      id="connector10pin"
      gorn="0.20.3"
      r="29"
    />
    <circle
      stroke-width="20"
      stroke="#f7bd13"
      fill="#ffffff"
      cx="1188.082"
      cy="649.80951"
      id="connector11pin"
      gorn="0.20.2"
      r="29"
    />
    <circle
      stroke-width="20"
      stroke="#f7bd13"
      fill="#ffffff"
      cx="1288.0819"
      cy="649.80951"
      id="connector12pin"
      gorn="0.20.1"
      r="29"
    />
    <circle
      stroke-width="20"
      stroke="#f7bd13"
      fill="#ffffff"
      r="29"
      gorn="0.20.1"
      id="connector13pin"
      cy="649.80951"
      cx="1388.0005"
    />
    <circle
      stroke-width="20"
      stroke="#f7bd13"
      fill="#ffffff"
      gorn="0.22.1.0.0.0"
      id="connector14pin"
      cy="549.82281"
      cx="1388.0005"
      r="29"
    />
    <circle
      stroke-width="20"
      stroke="#f7bd13"
      fill="#ffffff"
      gorn="0.22.0.0.0.0"
      id="connector15pin"
      cy="449.82263"
      cx="1388.0282"
      r="29"
    />
    <circle
      stroke-width="20"
      stroke="#f7bd13"
      fill="#ffffff"
      gorn="0.22.2.0.0.0"
      id="connector16pin"
      cy="349.8233"
      cx="1388.0282"
      r="29"
    />
    <circle
      stroke-width="20"
      stroke="#f7bd13"
      fill="#ffffff"
      gorn="0.22.4.0.0.0"
      id="connector17pin"
      cy="249.8087"
      cx="1388.0282"
      r="29"
    />
    <circle
      stroke-width="20"
      stroke="#f7bd13"
      fill="#ffffff"
      gorn="0.22.3.0.0.0"
      id="connector18pin"
      cy="149.82291"
      cx="1388.0005"
      r="29"
    />
    <circle
      stroke-width="20"
      stroke="#f7bd13"
      fill="#ffffff"
      r="29"
      gorn="0.18.1"
      id="connector19pin"
      cy="49.822712"
      cx="1388.0005"
    />
    <circle
      stroke-width="20"
      stroke="#f7bd13"
      fill="#ffffff"
      cx="1288.0819"
      cy="49.822712"
      id="connector20pin"
      gorn="0.18.1"
      r="29"
    />
    <circle
      r="29"
      cx="1188.082"
      cy="49.822712"
      id="connector21pin"
      gorn="0.18.2"
      fill="#ffffff"
      stroke="#f7bd13"
      stroke-width="20"
    />
    <circle
      stroke-width="20"
      stroke="#f7bd13"
      fill="#ffffff"
      cx="1088.0822"
      cy="49.822712"
      id="connector22pin"
      gorn="0.18.3"
      r="29"
    />
    <circle
      stroke-width="20"
      stroke="#f7bd13"
      fill="#ffffff"
      cx="988.09613"
      cy="49.822712"
      id="connector23pin"
      gorn="0.18.4"
      r="29"
    />
    <circle
      stroke-width="20"
      stroke="#f7bd13"
      fill="#ffffff"
      gorn="0.49"
      id="connector24pin"
      cy="49.822712"
      cx="888.06854"
      r="29"
    />
    <circle
      stroke-width="20"
      stroke="#f7bd13"
      fill="#ffffff"
      gorn="0.50"
      id="connector25pin"
      cy="49.822712"
      cx="788.09637"
      r="29"
    />
    <circle
      stroke-width="20"
      stroke="#f7bd13"
      fill="#ffffff"
      cx="688.08258"
      cy="49.822712"
      id="connector26pin"
      gorn="0.19.1"
      r="29"
    />
    <circle
      stroke-width="20"
      stroke="#f7bd13"
      fill="#ffffff"
      cx="588.0827"
      cy="49.822712"
      id="connector27pin"
      gorn="0.19.2"
      r="29"
    />
    <circle
      r="29"
      cx="488.09671"
      cy="49.822712"
      id="connector28pin"
      gorn="0.19.3"
      fill="#ffffff"
      stroke="#f7bd13"
      stroke-width="20"
    />
    <circle
      r="29"
      cx="388.08292"
      cy="49.822712"
      id="connector29pin"
      gorn="0.19.4"
      fill="#ffffff"
      stroke="#f7bd13"
      stroke-width="20"
    />
    <circle
      stroke-width="20"
      stroke="#f7bd13"
      fill="#ffffff"
      cx="288.08304"
      cy="49.822712"
      id="connector30pin"
      gorn="0.19.5"
      r="29"
    />
    <circle
      stroke-width="20"
      stroke="#f7bd13"
      fill="#ffffff"
      cx="188.08313"
      cy="49.822712"
      id="connector31pin"
      gorn="0.19.6"
      r="29"
    />
    <circle
      stroke-width="20"
      stroke="#f7bd13"
      fill="#ffffff"
      cx="88.083237"
      cy="49.822712"
      id="connector32pin"
      gorn="0.19.7"
      r="29"
    />
    <circle
      stroke-width="20"
      stroke="#f7bd13"
      fill="#ffffff"
      gorn="0.32"
      id="connector33pin"
      cy="153.87836"
      cx="188.29147"
      r="29"
    />
  </g>
</svg>
